<?xml version="1.0" encoding="UTF-8" standalone="no"?>
<svg
   xmlns:dc="http://purl.org/dc/elements/1.1/"
   xmlns:cc="http://creativecommons.org/ns#"
   xmlns:rdf="http://www.w3.org/1999/02/22-rdf-syntax-ns#"
   xmlns:svg="http://www.w3.org/2000/svg"
   xmlns="http://www.w3.org/2000/svg"
   viewBox="0 0 5333.3335 5333.3335"
   height="5333.3335"
   width="5333.3335"
   xml:space="preserve"
   id="svg2"
   version="1.1"><metadata
     id="metadata8"><rdf:RDF><cc:Work
         rdf:about=""><dc:format>image/svg+xml</dc:format><dc:type
           rdf:resource="http://purl.org/dc/dcmitype/StillImage" /></cc:Work></rdf:RDF></metadata><defs
     id="defs6"><clipPath
       id="clipPath18"
       clipPathUnits="userSpaceOnUse"><path
         id="path16"
         d="M 0,4000 H 4000 V 0 H 0 Z" /></clipPath></defs><g
     transform="matrix(1.3333333,0,0,-1.3333333,0,5333.3333)"
     id="g10"><g
       id="g12"><g
         clip-path="url(#clipPath18)"
         id="g14"><g
           transform="translate(1934.1174,2024.0063)"
           id="g20"><path
             id="path22"
             style="fill:#602d33;fill-opacity:1;fill-rule:nonzero;stroke:none"
             d="m 0,0 -144.48,560.839 c -189.14,-43.904 -377.417,-63.357 -555.06,-58.224 -21.853,-208.178 -4.887,-438.104 50.57,-669.799 z" /></g><g
           transform="translate(2723.0249,2107.8271)"
           id="g24"><path
             id="path26"
             style="fill:#602d33;fill-opacity:1;fill-rule:nonzero;stroke:none"
             d="m 0,0 -648.078,-166.954 123.419,-479.085 c 194.617,45.028 388.521,63.489 571.041,55.251 C 60.869,-405.078 45.339,-203.623 0,0" /></g><g
           transform="translate(1250.2441,2637.344)"
           id="g28"><path
             id="path30"
             style="fill:#602d33;fill-opacity:1;fill-rule:nonzero;stroke:none"
             d="M 0,0 C 163.543,-3.602 336.943,14.833 511.65,55.192 L 383.486,552.698 C 330.256,536.359 278.836,516.769 229.439,494.122 142.549,409.623 74.045,285.644 29.554,128.73 17.784,87.217 7.953,44.222 0,0" /></g><g
           transform="translate(1962.9655,1912.0249)"
           id="g32"><path
             id="path34"
             style="fill:#602d33;fill-opacity:1;fill-rule:nonzero;stroke:none"
             d="m 0,0 -648.076,-166.954 c 58.688,-200.184 142.425,-384.067 244.837,-539.663 155.821,95.4 334.509,172.924 526.658,227.532 z" /></g><g
           transform="translate(1138.4911,2643.3589)"
           id="g36"><path
             id="path38"
             style="fill:#602d33;fill-opacity:1;fill-rule:nonzero;stroke:none"
             d="M 0,0 C 8.969,52.652 20.372,103.798 34.336,153.045 54.511,224.203 79.382,289.533 108.473,348.659 -9.052,259.367 -108.761,150.382 -187.115,27.922 -127.076,14.979 -64.549,5.621 0,0" /></g><g
           transform="translate(1873.8759,2721.384)"
           id="g40"><path
             id="path42"
             style="fill:#602d33;fill-opacity:1;fill-rule:nonzero;stroke:none"
             d="m 0,0 c 172.462,49.077 333.185,116.718 474.632,198.889 -28.329,34.875 -57.71,67.768 -88.073,98.427 C 271.79,413.203 151.912,488.651 35.01,520.651 -19.181,516.612 -73.667,508.919 -128.165,497.506 Z" /></g><g
           transform="translate(1624.1099,1114.5735)"
           id="g44"><path
             id="path46"
             style="fill:#602d33;fill-opacity:1;fill-rule:nonzero;stroke:none"
             d="m 0,0 c 36.643,-47.984 75.191,-92.598 115.472,-133.272 114.768,-115.887 234.647,-191.336 351.549,-223.336 54.191,4.039 108.676,11.731 163.175,23.145 L 490.018,210.674 C 311.061,159.596 144.884,87.865 0,0" /></g><g
           transform="translate(2756.9248,1406.4027)"
           id="g48"><path
             id="path50"
             style="fill:#602d33;fill-opacity:1;fill-rule:nonzero;stroke:none"
             d="m 0,0 c -169.304,6.926 -349.455,-10.562 -530.816,-52.307 l 140.178,-544.138 c 53.23,16.339 104.65,35.93 154.047,58.577 86.89,84.499 155.393,208.478 199.884,365.393 C -21.092,-117.401 -8.899,-59.716 0,0" /></g><g
           transform="translate(2830.7605,2135.5815)"
           id="g52"><path
             id="path54"
             style="fill:#602d33;fill-opacity:1;fill-rule:nonzero;stroke:none"
             d="m 0,0 c 48.264,-215.33 64.791,-429.145 49.418,-627.005 84.534,-9.142 165.972,-24.348 243.182,-45.609 111.818,233.586 151.692,503.015 99.103,773.522 z" /></g><g
           transform="translate(1466.8303,1144.4778)"
           id="g56"><path
             id="path58"
             style="fill:#602d33;fill-opacity:1;fill-rule:nonzero;stroke:none"
             d="M 0,0 C -109.057,165.804 -197.894,360.993 -259.676,572.839 L -651.381,471.93 C -566.726,209.685 -401.637,-6.943 -190.877,-157.428 -133.55,-101.508 -69.595,-48.848 0,0" /></g><g
           transform="translate(2509.7871,2890.2732)"
           id="g60"><path
             id="path62"
             style="fill:#602d33;fill-opacity:1;fill-rule:nonzero;stroke:none"
             d="m 0,0 c 125.909,-181.841 226.802,-402.079 292.979,-642.49 l 392.475,101.107 C 600.785,-250.712 418.371,-13.368 183.527,143.944 127.808,92.994 66.401,44.837 0,0" /></g><g
           transform="translate(1177.4524,1829.0784)"
           id="g64"><path
             id="path66"
             style="fill:#602d33;fill-opacity:1;fill-rule:nonzero;stroke:none"
             d="m 0,0 c -58.219,242.461 -76.296,484.035 -53.918,704.076 -79.8,7.174 -156.831,19.667 -230.232,37.354 -129.605,-251.2 -174.639,-547.138 -108.328,-842.538 z" /></g><g
           transform="translate(1901.6187,2613.6931)"
           id="g68"><path
             id="path70"
             style="fill:#602d33;fill-opacity:1;fill-rule:nonzero;stroke:none"
             d="m 0,0 144.48,-560.839 648.972,167.185 C 730.059,-164.003 633.821,45.501 514.103,217.209 361.051,126.884 186.81,52.946 0,0" /></g><g
           transform="translate(2180.0154,3232.3853)"
           id="g72"><path
             id="path74"
             style="fill:#602d33;fill-opacity:1;fill-rule:nonzero;stroke:none"
             d="m 0,0 c 54.037,-37.71 107.376,-82.892 159.421,-135.443 36.021,-36.372 70.716,-75.643 104.008,-117.408 53.799,36.11 104.021,74.514 150.334,114.854 C 285.994,-68.638 146.039,-21.395 0,0" /></g><g
           transform="translate(2868.0569,1398.1395)"
           id="g76"><path
             id="path78"
             style="fill:#602d33;fill-opacity:1;fill-rule:nonzero;stroke:none"
             d="m 0,0 c -9.668,-67.375 -23.261,-132.449 -40.867,-194.544 -20.175,-71.158 -45.046,-136.487 -74.137,-195.614 128.143,97.361 235.145,218.108 316.328,354.237 C 137.039,-19.559 69.712,-7.551 0,0" /></g><g
           transform="translate(1820.0022,767.6144)"
           id="g80"><path
             id="path82"
             style="fill:#602d33;fill-opacity:1;fill-rule:nonzero;stroke:none"
             d="m 0,0 c -54.038,37.711 -107.378,82.893 -159.422,135.445 -45.417,45.859 -88.76,96.267 -129.778,150.584 C -346.587,245.736 -399.731,202.692 -448.109,157.307 -311.259,77.347 -159.234,23.328 0,0" /></g></g></g></g></svg>